<?xml version="1.0" encoding="UTF-8" standalone="no"?>
<!DOCTYPE svg PUBLIC "-//W3C//DTD SVG 1.1//EN" "http://www.w3.org/Graphics/SVG/1.1/DTD/svg11.dtd">
<svg version="1.1" xmlns="http://www.w3.org/2000/svg" xmlns:xlink="http://www.w3.org/1999/xlink" preserveAspectRatio="xMidYMid meet" viewBox="0 0 640 640" width="640" height="640"><defs><path d="M253.08 255.71L228.27 212.86L225.26 239.17L207.22 229.4L207.22 251.95L171.13 251.95L262.86 296.32L253.08 255.71Z" id="b2ttlauIYJ"></path><path d="M333.76 291.05L333.76 333.16L360.08 345.19L339.02 345.19L336.77 362.48L324.74 352.71L305.19 359.47L322.48 338.42L322.48 291.05L333.76 291.05Z" id="gxM7jhyk9"></path><path d="M277.14 291.05L277.14 333.16L303.46 345.19L282.41 345.19L280.15 362.48L268.12 352.71L248.57 359.47L265.86 338.42L265.86 291.05L277.14 291.05Z" id="b1anWEeHDW"></path><path d="M354.09 244.06C354.09 281.62 327.98 312.11 295.82 312.11C263.66 312.11 237.55 281.62 237.55 244.06C237.55 206.51 263.66 176.02 295.82 176.02C327.98 176.02 354.09 206.51 354.09 244.06Z" id="a1mSPMat4N"></path><path d="M332.63 212.33C332.63 223.95 327.41 233.38 320.98 233.38C314.55 233.38 309.32 223.95 309.32 212.33C309.32 200.71 314.55 191.28 320.98 191.28C327.41 191.28 332.63 200.71 332.63 212.33Z" id="bqRk1rqgG"></path><path d="M328.12 221.73C328.12 226.92 325.59 231.13 322.48 231.13C319.37 231.13 316.84 226.92 316.84 221.73C316.84 216.54 319.37 212.33 322.48 212.33C325.59 212.33 328.12 216.54 328.12 221.73Z" id="a41vriufvD"></path><path d="M309.32 248.95L389.4 237.67L309.32 223.38L309.32 248.95Z" id="edcBzoW4D"></path><path d="M314.36 212.86C314.36 224.48 309.14 233.91 302.71 233.91C296.27 233.91 291.05 224.48 291.05 212.86C291.05 201.24 296.27 191.8 302.71 191.8C309.14 191.8 314.36 201.24 314.36 212.86Z" id="eUUSTFYry"></path><path d="M308.35 221.73C308.35 226.92 305.82 231.13 302.71 231.13C299.59 231.13 297.07 226.92 297.07 221.73C297.07 216.54 299.59 212.33 302.71 212.33C305.82 212.33 308.35 216.54 308.35 221.73Z" id="gsWXwsjaF"></path></defs><g><g><g><use xlink:href="#b2ttlauIYJ" opacity="1" fill="#5fb7f0" fill-opacity="1"></use><g><use xlink:href="#b2ttlauIYJ" opacity="1" fill-opacity="0" stroke="#000000" stroke-width="1" stroke-opacity="1"></use></g></g><g><use xlink:href="#gxM7jhyk9" opacity="1" fill="#71a3fc" fill-opacity="1"></use><g><use xlink:href="#gxM7jhyk9" opacity="1" fill-opacity="0" stroke="#000000" stroke-width="1" stroke-opacity="1"></use></g></g><g><use xlink:href="#b1anWEeHDW" opacity="1" fill="#71a3fc" fill-opacity="1"></use><g><use xlink:href="#b1anWEeHDW" opacity="1" fill-opacity="0" stroke="#000000" stroke-width="1" stroke-opacity="1"></use></g></g><g><use xlink:href="#a1mSPMat4N" opacity="1" fill="#6fcafd" fill-opacity="1"></use><g><use xlink:href="#a1mSPMat4N" opacity="1" fill-opacity="0" stroke="#000000" stroke-width="1" stroke-opacity="1"></use></g></g><g><use xlink:href="#bqRk1rqgG" opacity="1" fill="#ffffff" fill-opacity="1"></use><g><use xlink:href="#bqRk1rqgG" opacity="1" fill-opacity="0" stroke="#000000" stroke-width="1" stroke-opacity="1"></use></g></g><g><use xlink:href="#a41vriufvD" opacity="1" fill="#000000" fill-opacity="1"></use></g><g><use xlink:href="#edcBzoW4D" opacity="1" fill="#dd6929" fill-opacity="1"></use><g><use xlink:href="#edcBzoW4D" opacity="1" fill-opacity="0" stroke="#000303" stroke-width="1" stroke-opacity="1"></use></g></g><g><use xlink:href="#eUUSTFYry" opacity="1" fill="#ffffff" fill-opacity="1"></use><g><use xlink:href="#eUUSTFYry" opacity="1" fill-opacity="0" stroke="#000000" stroke-width="1" stroke-opacity="1"></use></g></g><g><use xlink:href="#gsWXwsjaF" opacity="1" fill="#000000" fill-opacity="1"></use><g><use xlink:href="#gsWXwsjaF" opacity="1" fill-opacity="0" stroke="#040908" stroke-width="1" stroke-opacity="1"></use></g></g></g></g></svg>